<svg width="241" height="384" viewBox="0 0 241 384" fill="none" xmlns="http://www.w3.org/2000/svg">
<path d="M235.765 180.184C236.472 190.832 236.769 201.304 236.086 211.93C235.648 219.324 234.42 226.805 232.15 233.837C229.287 242.852 225.929 251.021 218.62 257.395C212.853 262.236 208.289 366.801 201.277 369.241C186.155 374.218 170.528 378.26 154.644 379.756C140.893 381.342 126.975 381.46 113.15 381.113C101.914 380.768 90.7113 379.788 79.5221 378.758C76.3405 378.421 73.1545 378.087 69.969 377.733C63.5493 376.914 57.2078 375.529 50.9102 374.048C48.3839 373.39 45.8945 372.569 43.4931 371.548C37.2369 369.659 28.5486 264.581 23.3174 260.649C20.7506 258.779 18.1971 256.875 15.8936 254.677C12.4564 251.322 9.63334 247.372 7.31234 243.183C2.36845 234.489 2.29349 224.076 4.00824 214.471C6.34271 199.242 11.9467 184.613 16.2183 169.976C20.098 157.798 23.3954 145.424 28.2766 133.589C29.1009 131.677 29.9147 129.651 31.4641 128.203C32.3706 127.311 34.2336 126.904 34.1822 128.75C34.0345 129.884 33.121 130.7 32.7471 131.753C32.6938 131.895 32.6364 132.033 32.5832 132.171C32.8723 132.273 33.1569 132.388 33.429 132.494C38.2744 134.512 43.1721 136.435 48.2807 137.683C55.713 139.822 63.2409 141.583 70.8753 142.837C74.9014 143.568 79.0279 143.89 83.1061 143.415C83.7869 143.314 84.4912 143.538 85.015 143.939C85.4025 142.385 85.7816 140.83 86.1396 139.276C86.4076 138.7 87.039 138.308 87.6696 138.412C89.8234 139.143 88.4426 143.75 88.2614 145.321C85.7837 158.514 82.2813 171.482 79.5221 184.62C77.7941 191.552 76.3098 198.536 74.8549 205.524C81.9542 202.471 89.3889 200.203 96.9503 198.598C109.383 195.809 122.244 194.703 134.937 196.081C142.601 196.839 150.385 198.445 156.826 202.875C164.272 207.198 170.827 212.716 176.621 219.044C177.646 220.17 178.649 221.321 179.626 222.488C179.551 222.015 179.48 221.539 179.404 221.062C178.38 214.254 177.188 207.238 176.138 200.468C175.066 194.85 174.126 189.21 173.453 183.529C172.78 178.66 172.138 173.564 171.283 168.776C170.257 163.437 169.624 158.034 169.22 152.61C169.076 150.596 169.104 148.446 170.204 146.674C171.546 144.797 173.288 146.357 172.742 148.278C172.715 148.383 172.692 148.484 172.669 148.589C173.272 148.562 173.906 148.687 174.505 148.699C175.866 148.766 177.218 148.64 178.555 148.383C181.846 147.637 185.022 146.429 188.101 145.052C192.799 142.796 197.24 140.034 202.076 138.062C206.743 135.844 211.314 133.417 216.131 131.537C218.145 130.696 220.213 129.968 222.203 129.075C222.645 128.865 223.102 128.596 223.577 128.415C223.258 126.999 223.179 125.575 224.699 124.804C225.609 124.413 226.618 125.013 226.917 125.923C227.954 130.004 228.948 134.105 230.006 138.185C231.187 143.384 232.064 148.543 232.957 153.774C234.286 162.531 234.871 171.367 235.761 180.171L235.765 180.184Z" fill="#FF6C4B"/>
<path d="M211.715 38.4058C213.759 44.3274 210.074 50.3733 205.883 54.377C204.721 55.4326 203.07 57.5985 201.659 55.6825C201.286 55.1326 201.173 54.4151 201.299 53.7441C197.15 53.6917 192.996 53.9758 188.843 53.9528C183.178 54.0151 177.489 53.8286 171.861 54.6155C168.458 55.0989 165.289 56.5588 162.384 58.3435C160.737 59.3353 159.367 60.6816 158.296 62.2734C156.585 64.7033 155.518 67.6376 155.248 70.5701C155.024 72.1609 154.955 73.8051 155.58 75.3192C156.324 77.0249 157.267 78.9237 155.632 80.4544C154.243 81.8887 152.084 82.589 150.113 82.4469C149.205 82.2784 148.339 81.8876 147.516 81.4809C146.3 80.8815 145.289 79.7347 145.408 78.3145C145.443 77.343 146.049 76.5337 146.386 75.6521C147.246 72.7391 145.984 70.7291 144.293 68.4796C140.608 63.7267 136.402 59.3259 131.557 55.7338C129.076 54.004 126.607 52.0976 123.636 51.3055C121.279 50.6007 118.78 50.7349 116.35 50.7862C112.544 50.7065 108.766 51.1492 105.045 51.9339C101.78 52.664 98.4785 53.305 95.308 54.3945C89.6401 56.2201 85.0382 59.446 81.8313 64.5118C79.5772 67.7859 77.7609 71.329 75.6319 74.6769C73.5816 78.3293 71.0395 81.6737 69.0226 85.3436C67.6581 87.7253 66.3521 90.1375 65.0503 92.554C64.6454 93.2324 63.964 94.7179 63.1979 95.7683C63.2955 95.9595 63.3932 96.1465 63.4824 96.3375C63.9978 96.9658 64.1226 98.4074 63.0137 98.4035C62.6431 98.3755 62.3772 98.1601 62.0945 97.9444C61.5275 97.6013 61.0167 97.1793 60.5489 96.7119C58.9131 95.1199 57.6244 93.2273 56.4804 91.2616C53.9861 87.0948 52.7726 82.3166 52.1068 77.557C49.8952 63.9224 54.8554 49.8918 64.0234 39.7317C69.4065 33.5199 76.6872 29.1153 84.6849 27.1776C89.5102 25.9886 94.5288 26.1877 99.4488 26.4734C104.387 26.9193 109.572 26.1032 113.642 23.1198C117.63 20.257 120.789 16.4318 124.673 13.445C127.331 11.3694 130.244 9.59331 133.197 7.97363C136.175 6.36704 139.207 4.75307 142.504 3.90576C148.848 2.23593 156.755 3.57071 160.465 9.452C164.988 16.3122 157.16 25.6094 162.637 28.1318C165.396 29.1934 168.441 28.7286 171.32 28.5468C173.272 28.3687 175.22 28.1316 177.106 27.8976C183.621 26.9801 190.239 26.46 196.781 27.4789C203.446 28.2349 209.352 31.9395 211.711 38.4015L211.715 38.4058Z" fill="#FFA946"/>
<path d="M128.922 79.546C128.293 78.6547 127.605 77.817 126.852 77.0285C126.037 76.1968 125.157 75.4313 124.221 74.7362C123.227 74.0232 122.176 73.3891 121.077 72.8467C119.999 72.3341 118.877 71.9007 117.728 71.572C117.312 71.459 116.893 71.3543 116.468 71.2622C116.893 71.3501 117.308 71.4547 117.728 71.5678C118.877 71.8965 119.999 72.3341 121.082 72.8426C122.18 73.385 123.231 74.0191 124.226 74.7363C125.161 75.4314 126.041 76.1969 126.856 77.0244C127.605 77.8128 128.293 78.6505 128.926 79.5419C129.497 80.3732 130.007 81.2455 130.459 82.1462C130.003 81.2454 129.492 80.3732 128.926 79.5419L128.922 79.546Z" fill="#1A1A1A"/>
<path d="M97.8771 76.7025C98.4657 76.1159 99.0876 75.5594 99.7383 75.0413C100.414 74.5237 101.115 74.0402 101.844 73.5994C102.659 73.1222 103.506 72.7004 104.377 72.3295C105.303 71.9555 106.25 71.6365 107.22 71.3854C106.254 71.6408 105.303 71.9555 104.377 72.3338C103.506 72.7046 102.663 73.1265 101.844 73.6036C101.119 74.0445 100.414 74.5237 99.7382 75.0455C99.0875 75.5636 98.4699 76.1202 97.877 76.7067C97.6877 76.9051 97.4985 77.1036 97.3176 77.3064C97.5027 77.1037 97.6878 76.9009 97.8771 76.7025Z" fill="#1A1A1A"/>
<path d="M115.747 71.1236C115.945 71.1442 116.163 71.1988 116.377 71.2491C116.163 71.203 115.944 71.1484 115.747 71.1236Z" fill="#1A1A1A"/>
<path d="M133.251 92.3718C133.286 91.6149 133.288 90.8532 133.247 90.0949C133.194 89.328 133.099 88.5603 132.966 87.8003C132.793 86.9091 132.573 86.0296 132.294 85.1659C132.002 84.3061 131.659 83.4664 131.266 82.6468C130.814 81.7462 130.304 80.8739 129.733 80.0426C129.105 79.1512 128.416 78.3135 127.663 77.5251C126.848 76.6934 125.969 75.9278 125.033 75.2369C124.854 75.1073 124.671 74.9819 124.487 74.8564C124.383 74.7829 124.279 74.7136 124.171 74.6442C124.125 74.6139 124.083 74.5879 124.038 74.5576C123.917 74.4796 123.8 74.4058 123.679 74.332C123.658 74.319 123.633 74.3059 123.612 74.2929C123.5 74.2235 123.383 74.154 123.266 74.0844C123.237 74.0671 123.204 74.0496 123.175 74.0322C123.17 74.0321 123.166 74.0236 123.158 74.0235C123.149 74.0191 123.137 74.0105 123.124 74.006C123.116 74.0017 123.108 73.9973 123.104 73.993C122.945 73.9017 122.782 73.8144 122.619 73.7272C122.532 73.6751 122.44 73.6271 122.348 73.5833C122.198 73.5005 122.043 73.4261 121.889 73.3474C120.806 72.839 119.684 72.4013 118.535 72.0726C118.119 71.9596 117.7 71.855 117.275 71.7671C117.246 71.7623 117.217 71.7533 117.183 71.7485C116.969 71.7024 116.75 71.6478 116.553 71.6231L116.527 71.6226C116.355 71.5899 116.196 71.5364 116.05 71.4622C115.713 71.4138 115.377 71.3738 115.036 71.3422C114.556 71.3037 114.071 71.282 113.586 71.273C112.828 71.2588 112.068 71.2782 111.312 71.3356C110.201 71.4411 109.106 71.6268 108.021 71.8884C107.055 72.1397 106.104 72.4586 105.178 72.8326C104.311 73.2036 103.464 73.6254 102.645 74.1024C101.92 74.5434 101.215 75.0268 100.54 75.5444C99.8888 76.0667 99.2712 76.619 98.6783 77.2055C98.489 77.404 98.2998 77.6025 98.1188 77.8095C97.7786 78.1861 97.4551 78.5714 97.1441 78.9654C96.85 79.3597 96.5642 79.7584 96.2952 80.1657C96.1477 80.386 96.0086 80.6065 95.8694 80.8311C95.4816 81.5014 95.1229 82.1891 94.8019 82.8943C94.608 83.341 94.4308 83.7964 94.2662 84.252C94.186 84.482 94.1058 84.7119 94.0298 84.942C93.967 85.147 93.9083 85.3521 93.8538 85.5615C93.7134 86.0765 93.594 86.5962 93.4915 87.1203C93.4018 87.6278 93.3291 88.1357 93.2773 88.6481C93.2518 88.8875 93.2305 89.1228 93.2133 89.3624C93.2132 89.3708 93.213 89.3834 93.2128 89.3918C93.1685 90.1822 93.1663 90.9775 93.2104 91.7737C93.2669 92.5828 93.3616 93.3842 93.5027 94.1822C93.6683 95.0186 93.8764 95.8431 94.131 96.6559C94.4225 97.5325 94.7691 98.3891 95.171 99.2215C95.6384 100.156 96.1698 101.054 96.7567 101.915C97.3731 102.777 98.041 103.593 98.7729 104.364C99.6213 105.226 100.534 106.017 101.503 106.734C102.477 107.426 103.507 108.038 104.581 108.568C105.714 109.107 106.895 109.545 108.103 109.888C109.269 110.196 110.454 110.412 111.654 110.531C112.829 110.629 114.009 110.634 115.183 110.542C116.286 110.441 117.373 110.259 118.449 110.002C119.432 109.746 120.395 109.424 121.334 109.041C122.18 108.678 123.002 108.265 123.799 107.804C124.251 107.53 124.691 107.24 125.127 106.937C125.426 106.728 125.717 106.51 126.003 106.284C126.62 105.786 127.208 105.254 127.77 104.697C127.934 104.527 128.093 104.358 128.248 104.184C128.61 103.782 128.959 103.372 129.292 102.945C129.763 102.323 130.201 101.674 130.606 101.008C130.828 100.63 131.033 100.242 131.235 99.8503C131.379 99.5668 131.515 99.2748 131.647 98.9826C131.727 98.8032 131.797 98.6193 131.872 98.4398C132.067 97.951 132.245 97.4578 132.406 96.96C132.622 96.2444 132.804 95.5155 132.945 94.7817C133.072 94.0392 133.166 93.2918 133.223 92.5438L133.226 92.3797L133.251 92.3718ZM137.084 89.4555C137.112 90.0031 137.123 90.5547 137.112 91.1058C137.079 92.9021 136.83 94.6945 136.414 96.4416C135.196 101.54 132.257 106.27 128.202 109.599C124.904 112.307 120.909 114.176 116.68 114.833C115.31 115.048 113.925 115.139 112.542 115.114C110.038 115.067 107.542 114.629 105.17 113.801C101.84 112.641 98.7599 110.693 96.2893 108.185C94.8491 106.728 93.6019 105.101 92.5724 103.331C91.6939 101.825 91.0199 100.213 90.4857 98.5614C89.6725 96.0506 89.3253 93.4223 89.3828 90.8015C89.4145 89.3291 89.577 87.8592 89.8571 86.4126C90.8045 81.5317 93.3391 77.013 96.8872 73.5444C99.9928 70.5093 103.929 68.3988 108.147 67.4046C109.986 66.9719 111.904 66.7637 113.814 66.7995C114.905 66.8199 116 66.9203 117.076 67.1046C117.076 67.1046 117.084 67.1048 117.089 67.1049C117.165 67.0979 117.245 67.0909 117.321 67.0924C117.43 67.0944 117.514 67.1044 117.594 67.1143C117.594 67.1143 117.594 67.1143 117.599 67.1144L117.645 67.1237C118.006 67.2146 118.38 67.2679 118.741 67.3546C119.388 67.5014 120.03 67.6817 120.663 67.8788C121.966 68.2861 123.217 68.8314 124.432 69.456C126.621 70.5827 128.638 72.0976 130.346 73.8635C132.568 76.1608 134.334 78.8788 135.485 81.8588C135.638 82.2531 135.769 82.6511 135.905 83.0493C136.575 85.1366 136.969 87.2692 137.088 89.4598L137.084 89.4555Z" fill="#1A1A1A"/>
<path d="M174.306 106.539C174.584 106.776 174.87 107.004 175.161 107.224C174.87 107.004 174.588 106.776 174.306 106.539Z" fill="#1A1A1A"/>
<path d="M171.145 103.082C170.698 102.442 170.284 101.778 169.905 101.097C170.284 101.782 170.698 102.442 171.145 103.082C171.466 103.517 171.795 103.944 172.142 104.359C171.795 103.944 171.462 103.521 171.145 103.082Z" fill="#1A1A1A"/>
<path d="M167.69 90.0941C167.772 89.3297 167.892 88.566 168.053 87.8116C167.892 88.566 167.772 89.3255 167.686 90.0941L167.69 90.0941Z" fill="#1A1A1A"/>
<path d="M204.657 74.9196C201.667 71.7705 197.813 69.5142 193.634 68.3628C191.813 67.8616 189.908 67.5818 187.995 67.546C189.908 67.5818 191.818 67.8617 193.634 68.3628C197.813 69.5142 201.671 71.7748 204.657 74.9196Z" fill="#1A1A1A"/>
<path d="M207.059 86.413C206.991 86.1803 206.924 85.9476 206.848 85.7147C206.92 85.9475 206.991 86.1803 207.059 86.413C207.114 86.6203 207.165 86.8275 207.212 87.0345C207.165 86.8275 207.114 86.6161 207.059 86.4088L207.059 86.413Z" fill="#1A1A1A"/>
<path d="M171.577 80.1858C172.239 79.3187 172.958 78.5073 173.74 77.7476C174.586 76.947 175.493 76.2148 176.454 75.5553C177.475 74.88 178.549 74.2857 179.667 73.7848C180.764 73.3129 181.901 72.9218 183.062 72.6363C183.481 72.5389 183.905 72.45 184.332 72.3739C183.905 72.4458 183.486 72.5348 183.062 72.6321C181.901 72.9176 180.764 73.3129 179.663 73.7805C178.545 74.2814 177.471 74.8757 176.45 75.5552C175.489 76.2148 174.581 76.9469 173.736 77.7433C172.958 78.5031 172.239 79.3145 171.573 80.1816C170.972 80.9909 170.429 81.8435 169.944 82.7266C170.433 81.8436 170.976 80.991 171.573 80.1816L171.577 80.1858Z" fill="#1A1A1A"/>
<path d="M204.168 80.326C204.447 80.7311 204.718 81.1402 204.971 81.5573C204.718 81.1402 204.451 80.7269 204.168 80.326Z" fill="#1A1A1A"/>
<path d="M202.704 78.5068C202.137 77.8986 201.537 77.3192 200.906 76.7771C200.25 76.2346 199.568 75.7252 198.855 75.2574C198.06 74.7501 197.229 74.2969 196.372 73.8937C195.46 73.4852 194.527 73.1311 193.566 72.8438C194.522 73.1352 195.46 73.4852 196.372 73.8979C197.229 74.3011 198.055 74.7542 198.855 75.2616C199.564 75.7294 200.25 76.2346 200.906 76.7813C201.537 77.3234 202.133 77.9027 202.704 78.511C202.885 78.7164 203.067 78.9218 203.24 79.1313C203.063 78.9217 202.885 78.7122 202.704 78.5068Z" fill="#1A1A1A"/>
<path d="M190.301 72.17C189.548 72.0843 188.79 72.0365 188.031 72.0223C187.546 72.0132 187.061 72.0209 186.58 72.0372C186.238 72.056 185.901 72.0834 185.562 72.1191C185.418 72.188 185.257 72.2355 185.079 72.2574C185.252 72.2396 185.414 72.1879 185.562 72.1191C185.901 72.0834 186.243 72.0561 186.58 72.0372C187.825 71.9847 189.064 72.029 190.306 72.17C191.408 72.3169 192.5 72.5436 193.574 72.8414C192.5 72.5394 191.412 72.3128 190.306 72.1658L190.301 72.17Z" fill="#1A1A1A"/>
<path d="M185.054 72.2606C184.856 72.2737 184.636 72.3201 184.42 72.3624C184.636 72.3243 184.856 72.2779 185.054 72.2606Z" fill="#1A1A1A"/>
<path d="M194.029 115.302C197.401 114.267 200.552 112.436 203.114 110.022C204.608 108.619 205.915 107.04 207.01 105.31C207.945 103.838 208.678 102.252 209.274 100.622C210.181 98.1435 210.63 95.5301 210.667 92.9089C210.69 91.4364 210.583 89.9615 210.357 88.5053C209.593 83.5924 207.229 78.982 203.813 75.383C200.823 72.2339 196.969 69.9775 192.791 68.8262C190.97 68.325 189.065 68.0452 187.151 68.0094C186.055 67.9889 184.962 68.0484 183.88 68.1922C183.88 68.1922 183.871 68.1921 183.867 68.192C183.791 68.1822 183.711 68.1723 183.636 68.1708C183.526 68.1688 183.442 68.1756 183.361 68.1825C183.361 68.1825 183.361 68.1825 183.357 68.1825L183.311 68.19C182.946 68.2674 182.57 68.3066 182.206 68.3798C181.555 68.5022 180.907 68.6584 180.267 68.8316C178.948 69.1899 177.678 69.688 176.44 70.2666C174.211 71.3107 172.139 72.749 170.366 74.4497C168.06 76.6622 166.193 79.3123 164.932 82.2472C164.764 82.6354 164.618 83.0283 164.467 83.4211C163.72 85.4818 163.246 87.5982 163.045 89.7828C162.997 90.329 162.965 90.8797 162.955 91.4308C162.921 93.2272 163.103 95.0276 163.453 96.7891C164.479 101.93 167.239 106.767 171.167 110.245C174.361 113.074 178.283 115.091 182.485 115.906C183.846 116.172 185.227 116.316 186.609 116.341C189.113 116.388 191.624 116.044 194.025 115.306L194.029 115.302ZM205.682 98.5727C205.358 99.4378 204.979 100.281 204.546 101.098C204.044 102.014 203.48 102.891 202.861 103.73C202.213 104.568 201.515 105.359 200.755 106.102C199.875 106.931 198.933 107.688 197.937 108.368C196.938 109.023 195.886 109.596 194.793 110.085C193.641 110.581 192.445 110.975 191.225 111.272C190.047 111.537 188.855 111.708 187.652 111.782C186.474 111.836 185.294 111.797 184.124 111.661C183.027 111.519 181.947 111.297 180.881 110.999C179.909 110.707 178.958 110.348 178.034 109.931C177.202 109.537 176.397 109.093 175.617 108.603C175.176 108.312 174.747 108.006 174.327 107.686C174.036 107.466 173.754 107.238 173.471 107.001C172.874 106.481 172.307 105.927 171.765 105.349C171.608 105.173 171.455 104.998 171.307 104.818C170.96 104.404 170.627 103.981 170.31 103.541C169.863 102.902 169.449 102.238 169.07 101.557C168.862 101.17 168.671 100.775 168.484 100.376C168.351 100.083 168.226 99.7906 168.105 99.4938C168.032 99.3115 167.964 99.125 167.9 98.9429C167.724 98.4472 167.564 97.9476 167.422 97.4441C167.233 96.7209 167.078 95.9858 166.965 95.2472C166.866 94.5004 166.799 93.7501 166.771 93.0005C166.772 92.9458 166.773 92.8911 166.77 92.8363C166.763 92.0787 166.794 91.3175 166.859 90.5612C166.941 89.7968 167.065 89.0332 167.227 88.2787C167.433 87.3946 167.685 86.524 167.996 85.6713C168.32 84.8231 168.694 83.9968 169.118 83.1925C169.603 82.3094 170.146 81.4568 170.747 80.6474C171.409 79.7802 172.128 78.9689 172.91 78.2091C173.755 77.4085 174.663 76.6764 175.624 76.0211C176.645 75.3416 177.718 74.7473 178.837 74.2463C179.938 73.7788 181.075 73.3834 182.236 73.0979C182.655 73.0006 183.079 72.9117 183.506 72.8398C183.536 72.8361 183.569 72.8283 183.599 72.8247C183.815 72.7866 184.035 72.7402 184.234 72.7229L184.259 72.7234C184.432 72.6972 184.593 72.6497 184.742 72.5809C185.08 72.5452 185.418 72.5178 185.76 72.499C186.241 72.4785 186.726 72.475 187.211 72.4841C187.97 72.4983 188.728 72.5461 189.481 72.6318C190.587 72.7787 191.675 73.0053 192.749 73.3074C193.705 73.5946 194.643 73.9488 195.555 74.3573C196.407 74.7604 197.238 75.2136 198.038 75.721C198.746 76.1888 199.433 76.6982 200.089 77.2408C200.719 77.787 201.316 78.3621 201.887 78.9704C202.068 79.1758 202.25 79.3812 202.423 79.5949C202.745 79.9839 203.058 80.3811 203.354 80.7864C203.633 81.1915 203.904 81.6005 204.157 82.0177C204.292 82.2433 204.427 82.4689 204.558 82.6986C204.92 83.3829 205.253 84.0835 205.547 84.8003C205.724 85.2539 205.884 85.7114 206.032 86.1771C206.103 86.4099 206.175 86.6427 206.242 86.8754C206.297 87.0826 206.348 87.2898 206.395 87.5011C206.516 88.021 206.616 88.5447 206.699 89.0723C206.769 89.5829 206.819 90.093 206.855 90.6071C206.872 90.8431 206.884 91.0832 206.893 91.3232C206.892 91.3317 206.892 91.3443 206.892 91.3527C206.907 92.1442 206.879 92.939 206.805 93.733C206.719 94.5394 206.594 95.3367 206.423 96.1289C206.226 96.9585 205.988 97.7747 205.703 98.5773L205.682 98.5727Z" fill="#1A1A1A"/>
<path d="M142.207 69.8457C143.734 71.5955 146.107 73.9167 143.821 75.995C143.614 75.747 143.404 75.4948 143.194 75.2467C142.145 73.8341 141.135 72.3843 140.026 71.0169C135.364 65.7448 129.187 61.6438 122.432 59.5857C106.544 55.2314 90.0034 60.0687 83.178 75.9708C82.2387 78.1711 81.3573 80.4229 80.7993 82.7523C80.3128 85.0873 80.2298 87.493 80.2739 89.8674C80.1911 96.3173 81.5768 102.938 85.0923 108.42C86.3212 110.354 87.6653 111.986 89.1273 113.407C87.2308 114.701 85.342 116.033 83.6803 117.623C80.3714 120.704 78.646 125.019 77.6123 129.33C76.9505 131.797 76.427 134.308 75.9625 136.816C75.7843 137.776 75.6229 138.741 75.4531 139.702C75.4201 139.886 75.3786 140.075 75.3412 140.272C70.3909 139.354 65.4931 138.11 60.543 137.184C57.3565 136.425 54.1465 135.801 50.9367 135.165C49.2146 134.8 47.5285 134.318 45.8429 133.807C46.5893 132.453 47.1914 130.924 47.5671 130.224C49.0679 127.096 50.3761 124.339 51.9179 121.047C51.9179 121.047 51.9179 121.047 51.918 121.043C58.3767 107.836 66.1212 95.3217 73.3771 82.5503C76.2862 77.3989 79.3705 72.3476 82.5882 67.383C85.8964 62.0834 87.8849 59.2589 93.9654 57.016C98.8909 55.206 103.977 53.8367 109.151 52.9487C112.808 52.1755 116.603 51.5564 120.235 52.8069C125.772 54.1857 129.852 58.3148 133.996 61.9653C136.847 64.4638 139.55 67.1278 142.19 69.8496L142.207 69.8457Z" fill="#FFFFEB"/>
<path d="M64.4785 245.826C62.7324 245.394 63.0448 243.346 63.4825 242.041C64.0379 239.855 64.5891 237.668 65.1613 235.482C66.6112 229.436 68.1871 223.418 69.8134 217.414C70.6945 214.27 71.6261 211.135 72.5492 208C72.8328 207.042 73.1206 206.088 73.3497 205.112C73.5696 204.177 73.8037 203.163 74.612 202.555C76.2041 201.533 77.1698 203.331 76.8266 204.768C75.9402 210.223 74.0208 215.443 72.727 220.806C71.1306 226.794 69.6602 232.805 68.1435 238.812C67.7746 240.274 67.4056 241.74 67.0367 243.202C66.8526 244.473 65.951 246.009 64.4787 245.818L64.4785 245.826Z" fill="#1A1A1A"/>
<path d="M210.492 67.3461C210.594 67.5585 210.7 67.7666 210.801 67.979C202.825 59.981 190.728 57.6797 178.805 60.474C171.978 62.2737 165.652 66.1406 160.795 71.2387C159.791 72.3899 158.862 73.6013 157.908 74.7997C157.432 74.0543 156.877 73.3033 156.832 72.3429C156.481 68.5445 159.412 65.6198 161.647 62.9009C163.125 61.22 164.613 59.4677 166.545 58.3002C169.226 56.9827 172.214 56.4073 175.178 56.1893C180.682 55.4885 186.24 55.4915 191.754 55.9904C196.336 56.3454 201.309 56.7289 205.035 59.7067C207.49 61.7138 208.966 64.6242 210.497 67.3462L210.492 67.3461Z" fill="#FFFFEB"/>
<path d="M161.768 145.946C166.407 146.39 169.111 141.828 165.756 138.348C163.161 136.179 160.452 134.028 158.764 131.164C159.799 131.074 160.823 130.879 161.804 130.514C164.617 129.578 165.965 126.531 164.318 123.962C163.646 122.877 162.666 122.084 161.69 121.283C159.775 119.711 157.831 118.16 156.097 116.385C154.134 114.277 152.308 112 150.986 109.429C150.434 108.497 150.443 107.1 149.352 106.6C148.708 106.315 147.89 106.783 147.559 107.333C146.238 109.862 148.36 113.193 149.711 115.348C152.495 119.81 156.725 122.979 160.646 126.368C159.22 126.653 157.764 126.722 156.289 126.649C156.1 126.594 155.902 126.582 155.704 126.612C151.821 126.317 147.872 125.09 144.201 124.284C143.216 124.005 142.248 123.675 141.275 123.354C140.803 123.152 140.263 123.125 139.791 123.326C138.595 123.254 137.916 124.6 137.439 125.542C134.938 128.749 130.691 129.225 126.924 129.718C125.037 130.062 122.973 129.951 121.268 130.929C118.405 132.492 118.464 136.293 120.685 138.397C122.669 140.538 125.666 141.301 128.487 141.497C135.149 142.001 141.35 138.047 144.844 132.553C148.24 138.521 154.697 145.018 161.768 145.946ZM171.887 122.833C172.008 122.886 172.13 122.939 172.255 122.991C172.157 123.962 172.302 124.966 172.104 126.094C171.695 130.413 171.221 134.735 170.328 138.981C169.522 142.598 168.356 146.132 167.039 149.592C166.191 151.836 165.26 154.062 163.982 156.1C161.055 160.839 155.898 163.553 150.924 165.703C145.236 168.126 145.655 170.979 145.081 176.41C144.72 180.822 144.54 185.246 144.373 189.67C144.29 191.629 144.3 193.599 143.951 195.537C143.795 197.141 142.342 197.691 141.013 198.167C138.65 198.926 136.236 199.5 133.806 199.997C129.509 200.662 125.356 200.643 120.974 200.439C115.758 200.206 110.545 198.922 105.914 196.495C104.847 195.815 103.885 194.942 103.158 193.902C103.108 193.421 103.155 192.934 103.173 192.446C103.445 186.905 104.013 181.377 104.138 175.828C104.156 172.836 104.269 169.682 103.036 166.886C101.803 164.022 99.0922 163.092 96.5447 161.765C91.5884 158.688 89.6663 154.368 89.634 148.657C89.4991 145.952 90.0562 143.223 89.6806 140.535C89.6248 140.139 89.53 139.796 89.4131 139.508C89.4011 139.474 89.3848 139.444 89.3728 139.41C89.3 139.244 89.2183 139.1 89.128 138.968C89.128 138.968 89.128 138.968 89.1281 138.964C89.1282 138.959 89.1282 138.959 89.1198 138.955C89.0872 138.895 89.0545 138.84 89.0177 138.78C88.9932 138.738 88.9645 138.695 88.9357 138.653C88.8948 138.589 88.8496 138.525 88.8002 138.461C88.7878 138.444 88.7796 138.431 88.7673 138.414C88.7302 138.367 88.6933 138.316 88.652 138.269C87.5464 136.956 85.9113 136.227 84.3457 135.608C83.1234 135.127 81.8703 134.712 80.603 134.381C81.4266 130.482 82.1553 126.473 84.1102 122.962C85.9101 119.843 89.0376 117.89 91.7617 115.639C94.3772 117.611 97.3254 119.156 100.662 120.654C105.139 122.783 110.069 123.637 114.985 123.914C115.591 123.968 116.194 124 116.797 124.011C123.537 124.137 130.234 121.641 135.153 116.994C138.443 113.832 141.057 110.035 143.864 106.46C144.651 105.426 145.559 104.442 146.607 103.67C148.993 102.364 151.513 102.659 153.723 104.241C154.444 104.924 155.087 105.71 155.658 106.52C158.33 110.198 160.8 114.091 163.969 117.374C164.08 117.49 164.192 117.597 164.304 117.708C164.648 118.047 165 118.374 165.361 118.688C165.432 118.748 165.506 118.812 165.577 118.873C165.577 118.873 165.585 118.877 165.585 118.881C165.701 118.98 165.818 119.075 165.934 119.174C166.021 119.243 166.104 119.316 166.191 119.381C166.304 119.471 166.416 119.558 166.528 119.644C166.873 119.911 167.227 120.17 167.585 120.417C167.651 120.464 167.714 120.508 167.78 120.551C168.322 120.919 168.876 121.266 169.443 121.588C169.581 121.666 169.723 121.745 169.865 121.823C169.882 121.832 169.894 121.84 169.907 121.845C170.057 121.923 170.203 122.006 170.353 122.085C170.504 122.163 170.667 122.246 170.825 122.325C171.013 122.417 171.202 122.509 171.394 122.597C171.557 122.675 171.724 122.746 171.887 122.82L171.887 122.833Z" fill="#FFFFEB"/>
<path d="M133.252 90.0939C133.288 90.8521 133.291 91.6139 133.256 92.3708L133.253 92.5348C133.192 93.287 133.098 94.0302 132.97 94.7727C132.826 95.5064 132.644 96.2353 132.432 96.9509C132.271 97.4529 132.093 97.9462 131.898 98.4307C131.828 98.6104 131.752 98.7941 131.673 98.9736C131.541 99.2657 131.405 99.5536 131.26 99.8413C131.063 100.233 130.854 100.621 130.632 100.999C130.227 101.669 129.789 102.314 129.318 102.936C128.985 103.359 128.636 103.773 128.274 104.175C128.115 104.349 127.96 104.518 127.796 104.688C127.233 105.245 126.646 105.777 126.029 106.275C125.742 106.501 125.447 106.718 125.152 106.928C124.721 107.231 124.277 107.521 123.825 107.795C123.032 108.256 122.21 108.669 121.36 109.032C120.421 109.419 119.458 109.737 118.475 109.993C117.399 110.25 116.312 110.432 115.209 110.533C114.031 110.625 112.855 110.615 111.68 110.522C110.48 110.403 109.295 110.187 108.128 109.879C106.92 109.536 105.74 109.098 104.607 108.559C103.533 108.029 102.503 107.417 101.529 106.725C100.556 106.008 99.6429 105.217 98.7987 104.355C98.0709 103.588 97.3989 102.772 96.7825 101.906C96.1914 101.045 95.6643 100.143 95.1968 99.2125C94.7991 98.3802 94.4525 97.5236 94.1569 96.6469C93.9022 95.8341 93.6899 95.0095 93.5285 94.1732C93.3874 93.3752 93.2885 92.5737 93.2362 91.7647C93.1962 90.9728 93.1942 90.1774 93.2386 89.3828C93.2388 89.3744 93.239 89.3618 93.2392 89.3534C93.2563 89.1138 93.2776 88.8785 93.3031 88.6391C93.3591 88.1268 93.4277 87.6188 93.5173 87.1113C93.6199 86.5871 93.7392 86.0675 93.8796 85.5525C93.9341 85.3431 93.9928 85.138 94.0556 84.933C94.1316 84.7029 94.2076 84.4729 94.2921 84.243C94.4566 83.7874 94.6338 83.332 94.8277 82.8853C95.1488 82.1801 95.5032 81.4923 95.8953 80.8221C96.0344 80.5975 96.1735 80.377 96.321 80.1567C96.59 79.7493 96.8717 79.3464 97.17 78.9564C97.481 78.5624 97.8044 78.1771 98.1446 77.8005C98.3297 77.5977 98.5149 77.395 98.7041 77.1965C99.2928 76.6099 99.9147 76.0534 100.565 75.5354C101.241 75.0178 101.942 74.5343 102.671 74.0934C103.486 73.6163 104.333 73.1945 105.204 72.8236C106.13 72.4496 107.077 72.1306 108.047 71.8794C109.131 71.6178 110.227 71.4321 111.338 71.3266C112.094 71.2692 112.853 71.2498 113.612 71.264C114.097 71.273 114.581 71.2989 115.062 71.3332C115.403 71.3648 115.739 71.4048 116.076 71.4531C116.218 71.5274 116.377 71.5808 116.553 71.6094L116.579 71.6099C116.776 71.6346 116.995 71.6892 117.209 71.7353C117.238 71.7443 117.268 71.749 117.301 71.7539C117.725 71.8418 118.141 71.9463 118.561 72.0594C119.71 72.3881 120.832 72.8258 121.914 73.3342C122.069 73.4128 122.224 73.4873 122.374 73.57C122.466 73.6181 122.558 73.6619 122.645 73.714C122.808 73.8012 122.967 73.8884 123.129 73.9798C123.138 73.9799 123.142 73.9884 123.15 73.9928C123.334 74.1099 123.517 74.2311 123.7 74.3524C123.534 74.2399 123.367 74.1273 123.2 74.019C123.23 74.0364 123.263 74.0538 123.292 74.0712C123.409 74.1407 123.522 74.2102 123.638 74.2797C123.659 74.2927 123.684 74.3058 123.705 74.3188C123.805 74.3796 123.905 74.4446 124.005 74.5054C124.026 74.5184 124.047 74.5314 124.063 74.5444C124.109 74.5705 124.151 74.6007 124.197 74.631C124.305 74.7004 124.409 74.7697 124.513 74.8432C124.601 74.9037 124.692 74.9644 124.78 75.0249C124.876 75.0898 124.967 75.1547 125.059 75.2237C125.994 75.9188 126.874 76.6844 127.689 77.5118C128.438 78.3002 129.126 79.1379 129.759 80.0293C130.33 80.8607 130.84 81.733 131.292 82.6336C131.685 83.4532 132.028 84.2929 132.32 85.1526C132.599 86.0164 132.818 86.8958 132.992 87.7871C133.125 88.5471 133.216 89.3105 133.273 90.0817L133.252 90.0939Z" fill="#FFFFEB"/>
<path d="M206.876 91.7612C206.875 92.0348 206.87 92.3082 206.861 92.5816C206.852 92.8297 206.835 93.0777 206.817 93.3215C206.807 93.4559 206.796 93.5904 206.785 93.7291C206.698 94.5354 206.573 95.3327 206.402 96.1249C206.206 96.9545 205.967 97.7707 205.682 98.5734C205.358 99.4384 204.979 100.281 204.547 101.098C204.044 102.015 203.48 102.892 202.861 103.731C202.213 104.569 201.515 105.359 200.755 106.103C199.875 106.932 198.933 107.689 197.938 108.369C196.939 109.023 195.886 109.597 194.793 110.086C193.641 110.582 192.445 110.976 191.225 111.273C190.048 111.537 188.855 111.708 187.652 111.783C186.474 111.836 185.294 111.798 184.125 111.662C183.027 111.519 181.947 111.297 180.882 111C179.909 110.708 178.958 110.349 178.034 109.932C177.202 109.538 176.397 109.093 175.617 108.603C175.176 108.313 174.747 108.006 174.327 107.687C174.036 107.467 173.75 107.238 173.472 107.002C172.874 106.481 172.307 105.928 171.765 105.349C171.608 105.174 171.455 104.999 171.307 104.819C170.961 104.404 170.627 103.982 170.31 103.542C169.863 102.902 169.449 102.238 169.07 101.558C168.968 101.362 168.866 101.167 168.769 100.971C168.671 100.776 168.578 100.576 168.485 100.377C168.464 100.334 168.448 100.292 168.428 100.25C168.412 100.22 168.4 100.19 168.383 100.156C168.351 100.084 168.319 100.012 168.286 99.9355C168.222 99.787 168.161 99.6427 168.101 99.4943C168.028 99.312 167.96 99.1256 167.896 98.9434C167.852 98.8205 167.812 98.6977 167.768 98.5707C167.64 98.1979 167.525 97.8212 167.418 97.4447C167.229 96.7215 167.074 95.9863 166.961 95.2477C166.862 94.501 166.795 93.7506 166.767 93.001L166.77 92.837C166.759 92.0792 166.786 91.318 166.855 90.5618C166.937 89.7974 167.061 89.0338 167.223 88.2793C167.429 87.3952 167.681 86.5245 167.992 85.6718C168.316 84.8236 168.69 83.9973 169.114 83.193C169.599 82.3099 170.142 81.4574 170.743 80.648C171.405 79.7808 172.124 78.9694 172.906 78.2097C173.751 77.4091 174.659 76.677 175.62 76.0216C175.774 75.9193 175.928 75.817 176.085 75.7231C176.222 75.6373 176.358 75.5515 176.495 75.4699C176.546 75.4414 176.593 75.4128 176.644 75.3843C176.755 75.319 176.866 75.2537 176.981 75.1886C177.011 75.1723 177.041 75.156 177.07 75.1397C177.219 75.0584 177.373 74.9729 177.526 74.8916C177.548 74.8751 177.573 74.863 177.599 74.8508C177.718 74.7857 177.837 74.729 177.961 74.6682C178.118 74.587 178.276 74.51 178.437 74.4373C178.569 74.3724 178.705 74.3118 178.841 74.2512C179.942 73.7837 181.08 73.3883 182.24 73.1029C182.66 73.0055 183.083 72.9166 183.51 72.8447C183.54 72.8368 183.574 72.8332 183.603 72.8296C183.819 72.7915 184.039 72.7451 184.238 72.7278L184.263 72.7283C184.436 72.7021 184.598 72.6546 184.747 72.5858C185.085 72.5501 185.422 72.5227 185.764 72.5039C186.245 72.4834 186.73 72.4799 187.215 72.489C187.974 72.5032 188.732 72.551 189.485 72.6367C190.592 72.7836 191.68 73.0102 192.753 73.3123C193.71 73.5995 194.647 73.9537 195.559 74.3622C196.412 74.7653 197.242 75.2185 198.043 75.7259C198.751 76.1937 199.437 76.7031 200.093 77.2457C200.724 77.7919 201.32 78.367 201.891 78.9753C202.073 79.1807 202.254 79.3861 202.427 79.5956C202.588 79.788 202.745 79.9845 202.901 80.1852C203.058 80.3859 203.21 80.5824 203.358 80.7871C203.498 80.9875 203.637 81.1922 203.768 81.3966C203.9 81.6011 204.031 81.8097 204.157 82.0183C204.296 82.244 204.427 82.4695 204.558 82.6992C204.92 83.3835 205.253 84.0841 205.547 84.8009C205.725 85.2545 205.885 85.712 206.032 86.1777C206.103 86.4105 206.175 86.6391 206.242 86.876C206.27 86.9817 206.298 87.0833 206.321 87.1889L206.395 87.5017C206.458 87.7638 206.512 88.0215 206.562 88.2876C206.612 88.5537 206.657 88.8112 206.699 89.0771C206.769 89.5877 206.823 90.0979 206.856 90.6119C206.872 90.8521 206.885 91.088 206.893 91.3281L206.892 91.3575C206.894 91.4922 206.896 91.6311 206.897 91.7658L206.876 91.7612Z" fill="#FFFFEB"/>
<path d="M137.112 91.1071C137.122 90.556 137.116 90.0046 137.084 89.4569C136.965 87.2663 136.57 85.1336 135.901 83.0463C135.769 82.6483 135.633 82.2501 135.48 81.8559C134.33 78.8758 132.564 76.1578 130.342 73.8605C128.629 72.0946 126.617 70.5797 124.428 69.453C123.213 68.8284 121.966 68.2833 120.658 67.8758C120.025 67.6788 119.383 67.4984 118.737 67.3517C118.376 67.2692 118.001 67.2159 117.64 67.1207L117.594 67.1115C117.594 67.1115 117.594 67.1115 117.59 67.1114C117.51 67.0973 117.426 67.0915 117.316 67.0894C117.236 67.0879 117.16 67.0949 117.084 67.1019C117.084 67.1019 117.076 67.1017 117.072 67.1017C115.995 66.9174 114.901 66.8169 113.809 66.7965C111.895 66.7607 109.977 66.9689 108.143 67.4017C103.924 68.3958 99.9841 70.5105 96.8828 73.5414C93.3347 77.0101 90.8001 81.5288 89.8528 86.4096C89.5727 87.8563 89.4102 89.3262 89.3784 90.7985C89.3209 93.4235 89.6723 96.0477 90.4814 98.5585C91.0155 100.21 91.6895 101.826 92.568 103.328C93.5976 105.094 94.8448 106.725 96.285 108.182C98.7597 110.691 101.84 112.638 105.166 113.799C107.541 114.626 110.034 115.064 112.538 115.111C113.921 115.137 115.305 115.04 116.676 114.83C120.905 114.173 124.9 112.304 128.197 109.596C132.257 106.268 135.196 101.538 136.409 96.4386C136.826 94.6915 137.07 92.8991 137.108 91.1028L137.112 91.1071ZM209.274 100.626C210.181 98.1478 210.626 95.5343 210.667 92.9132C210.69 91.4407 210.583 89.9658 210.357 88.5096C209.593 83.5967 207.229 78.9863 203.814 75.3873C200.824 72.2382 196.97 69.9818 192.791 68.8305C190.971 68.3293 189.061 68.0494 187.152 68.0137C186.06 67.9932 184.962 68.0527 183.88 68.1965C183.88 68.1965 183.872 68.1964 183.868 68.1963C183.792 68.1823 183.716 68.1766 183.636 68.1751C183.526 68.1731 183.442 68.1799 183.362 68.1868C183.362 68.1868 183.362 68.1868 183.357 68.1868L183.311 68.1943C182.947 68.2717 182.571 68.3109 182.207 68.3841C181.555 68.5065 180.907 68.6627 180.267 68.8359C178.949 69.1942 177.679 69.6923 176.441 70.2709C174.211 71.315 172.139 72.7533 170.366 74.454C168.06 76.6665 166.193 79.3166 164.932 82.2515C164.765 82.6397 164.618 83.0326 164.467 83.4254C163.72 85.4861 163.246 87.6025 163.045 89.7871C162.997 90.3333 162.966 90.884 162.955 91.4351C162.922 93.2315 163.103 95.0319 163.454 96.7934C164.479 101.934 167.239 106.771 171.168 110.249C174.362 113.078 178.284 115.096 182.485 115.911C183.847 116.176 185.227 116.32 186.61 116.346C189.114 116.393 191.625 116.048 194.025 115.31C197.397 114.275 200.548 112.444 203.11 110.031C204.604 108.628 205.911 107.049 207.006 105.318C207.941 103.846 208.675 102.261 209.27 100.631L209.274 100.626ZM213.568 81.2218C214.965 84.7283 215.588 88.3887 215.299 92.1456C215.217 97.6319 214.063 103.178 211.238 107.935C209.704 110.326 207.853 112.569 205.607 114.324C202.187 116.764 198.271 118.491 194.311 119.857C191.313 120.777 188.186 121.127 185.06 121.198C180.06 121.551 174.985 120.315 170.869 117.419C166.78 114.632 164.055 110.423 161.211 106.473C159.789 104.451 158.403 102.355 156.502 100.737C156.137 100.444 155.712 100.15 155.245 99.8718C155.216 99.8586 155.191 99.8455 155.161 99.8323C155.028 99.7709 154.894 99.7137 154.756 99.6606C154.651 99.6082 154.551 99.56 154.446 99.5117C154.392 99.4855 154.333 99.4591 154.279 99.4371C154.145 99.3799 154.011 99.3226 153.877 99.2696C153.865 99.2652 153.856 99.2608 153.844 99.2564L153.835 99.2562C153.835 99.2562 153.819 99.2433 153.81 99.2389C153.773 99.2214 153.735 99.2038 153.697 99.1905C153.564 99.1333 153.425 99.0844 153.287 99.044C153.287 99.044 153.249 99.0348 153.232 99.0261C153.161 99.0037 153.09 98.9856 153.023 98.9717L153.018 98.9716C152.985 98.9626 152.947 98.9534 152.909 98.9485C152.88 98.9395 152.85 98.9348 152.817 98.9299C152.813 98.9299 152.808 98.9298 152.8 98.9296C152.796 98.9296 152.792 98.9295 152.783 98.9293C152.678 98.9021 152.569 98.8748 152.464 98.8476C152.359 98.8204 152.25 98.8015 152.141 98.7784C151.368 98.6251 150.576 98.5555 149.787 98.566C149.741 98.5652 149.695 98.5643 149.648 98.5718C149.184 98.5842 148.719 98.626 148.263 98.6974C148.242 98.697 148.225 98.6967 148.204 98.7047L148.199 98.7046C148.136 98.7119 148.068 98.719 148.005 98.7304C147.975 98.7299 147.946 98.7378 147.916 98.7456C147.895 98.7452 147.87 98.7532 147.848 98.757C147.696 98.7794 147.548 98.8061 147.4 98.8412C147.065 98.9191 146.734 99.0139 146.4 99.0876C146.37 99.0954 146.341 99.1033 146.311 99.107C146.281 99.1148 146.252 99.1227 146.222 99.1263C146.222 99.1263 146.214 99.1262 146.21 99.1261C145.985 99.1892 145.764 99.2651 145.548 99.3452C145.505 99.3612 145.463 99.3772 145.42 99.3891C144.587 99.7691 143.832 100.209 143.229 100.657C141.269 102.203 139.809 104.246 138.309 106.212C135.319 110.054 132.443 114.158 128.248 116.789C124.03 119.53 118.909 120.575 113.926 120.035C110.805 119.851 107.693 119.384 104.731 118.348C100.825 116.836 96.9761 114.962 93.6507 112.396C91.4712 110.558 89.7054 108.249 88.2626 105.802C85.6168 100.942 84.6714 95.3565 84.7952 89.8711C84.6463 86.1102 85.4017 82.4756 86.9338 79.0197C89.3541 72.7229 94.0398 67.0535 100.311 64.326C109.336 60.4422 120.609 61.2551 128.906 66.5531C132.193 68.702 135.365 71.1349 137.662 74.3594C138.558 75.5714 139.445 76.8421 140.397 78.0509C140.517 78.1752 140.628 78.2994 140.744 78.4278C140.818 78.5133 140.892 78.6031 140.963 78.6886C141.045 78.7869 141.132 78.8853 141.223 78.9796C141.334 79.0953 141.45 79.2111 141.562 79.3268C141.562 79.3226 141.554 79.3183 141.55 79.314C141.682 79.4553 141.827 79.5843 141.964 79.7258C141.98 79.7429 141.992 79.76 142.009 79.7771C142.03 79.7943 142.046 79.8157 142.063 79.837C142.112 79.8842 142.162 79.9315 142.212 79.9829C142.224 80 142.232 80.017 142.24 80.0339C144.165 82.1952 146.83 83.5623 149.693 84.0284C150.732 84.1362 151.813 84.0975 152.802 83.7373C152.891 83.7011 153.133 83.6046 153.431 83.4755C153.478 83.4553 153.52 83.4351 153.571 83.415C153.813 83.3101 154.077 83.1846 154.333 83.0547C154.341 83.0548 154.354 83.0467 154.362 83.0384C154.371 83.0386 154.375 83.0344 154.384 83.0304C154.473 82.9942 154.558 82.9495 154.647 82.9091C154.894 82.7917 155.137 82.6615 155.371 82.527C155.47 82.47 155.568 82.4129 155.666 82.3516C155.687 82.3394 155.708 82.3271 155.73 82.3107C155.824 82.2535 155.917 82.1964 156.007 82.1349C156.097 82.0777 156.182 82.0204 156.268 81.9588C156.601 81.7336 156.917 81.4912 157.23 81.2404C157.354 81.1375 157.478 81.0346 157.598 80.9316C157.701 80.8452 157.8 80.7545 157.903 80.6638C157.941 80.6266 157.984 80.5896 158.023 80.5524C158.104 80.4782 158.186 80.404 158.263 80.3255C158.396 80.1975 158.53 80.0695 158.663 79.9331C158.757 79.8381 158.852 79.7431 158.947 79.6439C159.063 79.524 159.179 79.3999 159.291 79.2757C159.368 79.193 159.441 79.1144 159.515 79.0316C159.601 78.9365 159.683 78.8454 159.769 78.7502C159.859 78.6509 159.945 78.5473 160.036 78.4438C160.126 78.3403 160.213 78.2367 160.299 78.1331C160.385 78.0295 160.471 77.9259 160.558 77.8223C160.683 77.6689 160.808 77.5198 160.933 77.3664C161.015 77.2669 161.097 77.1675 161.175 77.0679C161.417 76.7652 161.654 76.4667 161.892 76.1639C162.004 76.0229 162.116 75.8819 162.224 75.7409C162.35 75.5833 162.475 75.4215 162.6 75.2639C162.756 75.0648 162.911 74.8658 163.071 74.671C165.487 71.5388 168.748 69.2221 172.113 67.1977C180.602 62.2139 191.898 61.8236 200.771 66.0424C206.94 68.9985 211.406 74.8435 213.589 81.2264L213.568 81.2218Z" fill="#FFBCF2"/>
<path d="M165.749 138.345C169.104 141.829 166.4 146.387 161.761 145.942C154.686 145.01 148.233 138.514 144.836 132.55C141.343 138.044 135.142 141.997 128.48 141.494C125.659 141.298 122.658 140.531 120.678 138.394C118.457 136.29 118.398 132.489 121.261 130.926C122.97 129.948 125.03 130.058 126.917 129.715C130.683 129.226 134.93 128.75 137.432 125.539C137.909 124.601 138.588 123.254 139.784 123.323C140.256 123.122 140.795 123.144 141.268 123.351C142.24 123.672 143.208 124.002 144.194 124.281C147.865 125.086 151.814 126.309 155.696 126.609C155.895 126.579 156.093 126.591 156.282 126.645C157.752 126.719 159.212 126.654 160.639 126.365C156.717 122.979 152.488 119.807 149.704 115.344C148.353 113.194 146.231 109.859 147.552 107.329C147.883 106.776 148.701 106.307 149.345 106.597C150.436 107.097 150.431 108.494 150.979 109.426C152.301 111.997 154.127 114.274 156.09 116.381C157.828 118.156 159.768 119.703 161.683 121.28C162.659 122.081 163.639 122.873 164.31 123.959C165.957 126.527 164.61 129.574 161.797 130.511C160.82 130.875 159.796 131.071 158.757 131.161C160.449 134.025 163.154 136.175 165.749 138.345Z" fill="#1A1A1A"/>
<path d="M134.882 130.172C134.188 130.087 133.558 129.263 134.009 128.623C134.319 128.267 134.787 128.053 135.139 127.727C136.167 126.854 137.042 125.823 137.714 124.657C138.438 122.886 139.994 122.675 141.662 123.207C143.32 123.626 144.904 124.177 146.544 124.641C149.332 125.51 152.224 126.006 155.104 126.447C157.175 126.671 159.281 127.009 161.344 126.539C161.83 126.455 162.668 126.269 162.872 126.895C163.021 127.466 161.88 127.832 161.535 127.998C158.945 129.191 156.019 128.278 153.326 127.954C150.442 127.462 147.614 126.707 144.831 125.809C143.741 125.468 142.651 125.111 141.543 124.838C140.227 124.409 140.078 124.924 139.582 126.009C138.821 127.459 137.722 128.693 136.368 129.615C135.936 129.952 135.453 130.3 134.878 130.172L134.882 130.172Z" fill="#1A1A1A"/>
<path d="M142.26 147.469C141.565 147.41 140.77 147.521 140.215 147.022C138.888 145.823 139.784 143.471 141.576 143.462C143.471 143.355 145.878 142.524 145.897 145.336C145.682 147.558 144.108 147.651 142.264 147.473L142.26 147.469Z" fill="#1A1A1A"/>
<path d="M121.234 87.492C118.015 84.65 113.391 83.869 109.249 84.5911C108.462 84.7573 107.686 84.9785 106.93 85.2463C105.644 85.723 104.385 86.2928 103.281 87.1223C101.351 88.2098 100.262 85.757 101.352 84.2918C103.007 82.1765 105.685 81.2376 108.171 80.4719C113.129 79.1675 118.736 79.9332 122.925 82.9617C123.653 83.5309 124.577 84.1374 124.562 85.1723C124.75 86.8424 122.756 88.8335 121.238 87.4963L121.234 87.492Z" fill="#1A1A1A"/>
<path d="M112.13 87.786C109.626 87.293 109.759 83.8109 111.246 82.3153C111.907 81.4734 113.409 81.1859 113.893 82.3565C115.135 82.2409 115.738 83.603 115.567 84.6519C115.381 86.2603 113.883 88.0882 112.13 87.7902L112.13 87.786Z" fill="#1A1A1A"/>
<path d="M175.928 87.9371C175.101 87.7365 174.722 86.7951 174.893 86.0156C175.475 82.8281 184 80.8961 186.865 80.794C190.011 80.5499 193.234 80.9469 196.132 82.23C198.089 83.1377 200.788 84.2151 199.331 86.8307C198.926 87.5218 198.229 88.0348 197.411 88.0237C196.615 87.9793 196.071 87.3252 195.381 87.0051C193.798 86.1759 192.084 85.6051 190.309 85.3573C186.776 84.8955 183.176 85.4594 179.84 86.6595C178.986 86.9717 178.14 87.3178 177.303 87.6725C176.861 87.862 176.402 88.0597 175.919 87.9412L175.928 87.9371Z" fill="#1A1A1A"/>
<path d="M187.04 88.828C185.015 88.6175 184.646 86.0141 185.425 84.4926C185.824 83.4858 187.139 82.3741 188.152 83.2222C189.879 81.9962 191.244 83.8566 190.757 85.5645C190.442 87.2841 188.843 88.8786 187.035 88.8279L187.04 88.828Z" fill="#1A1A1A"/>
<path d="M143.813 75.9888C146.1 73.9106 143.727 71.5936 142.199 69.8396C139.56 67.1178 136.856 64.458 134.006 61.9553C129.858 58.3047 125.781 54.1757 120.245 52.7969C116.612 51.5421 112.818 52.1655 109.16 52.9387C103.986 53.8267 98.9006 55.196 93.9751 57.006C87.8945 59.2531 85.9061 62.0734 82.5979 67.373C79.3802 72.3376 76.2959 77.3889 73.3868 82.5403C66.1266 95.3158 58.3863 107.826 51.9276 121.033C51.9276 121.033 51.9276 121.033 51.9276 121.037C50.3858 124.329 49.0776 127.086 47.5769 130.214C47.1969 130.914 46.599 132.443 45.8525 133.797C47.5339 134.308 49.2243 134.79 50.9464 135.155C54.1562 135.791 57.3704 136.415 60.5526 137.174C65.5028 138.1 70.4006 139.344 75.3509 140.262C75.3883 140.069 75.4298 139.876 75.4628 139.692C75.6326 138.731 75.7982 137.766 75.9722 136.806C76.4325 134.294 76.9602 131.787 77.622 129.32C78.6599 125.009 80.3811 120.694 83.69 117.613C85.3559 116.023 87.2446 114.695 89.137 113.397C87.6751 111.972 86.3309 110.339 85.102 108.41C81.5907 102.928 80.2008 96.3073 80.2836 89.8574C80.2353 87.4787 80.3225 85.0773 80.8089 82.7423C81.3671 80.4087 82.2441 78.161 83.1877 75.9608C90.0131 60.0587 106.55 55.2171 122.442 59.5757C129.197 61.6296 135.373 65.7306 140.035 71.0069C141.144 72.3743 142.15 73.824 143.203 75.2367C143.414 75.489 143.624 75.737 143.83 75.9849L143.813 75.9888ZM172.245 122.99C172.124 122.938 172.002 122.885 171.877 122.832C171.714 122.757 171.547 122.683 171.384 122.608C171.195 122.52 171.003 122.429 170.815 122.337C170.656 122.258 170.498 122.179 170.343 122.096C170.189 122.013 170.042 121.939 169.896 121.857C169.884 121.848 169.867 121.839 169.855 121.835C169.713 121.756 169.571 121.678 169.433 121.6C168.866 121.273 168.311 120.93 167.77 120.563C167.703 120.519 167.637 120.472 167.574 120.428C167.216 120.182 166.863 119.923 166.518 119.655C166.405 119.569 166.293 119.483 166.181 119.392C166.094 119.323 166.007 119.254 165.923 119.186C165.807 119.091 165.691 118.992 165.575 118.893C165.575 118.893 165.566 118.888 165.566 118.884C165.496 118.824 165.421 118.759 165.351 118.699C164.99 118.385 164.637 118.059 164.294 117.72C164.182 117.608 164.07 117.497 163.958 117.385C160.79 114.102 158.32 110.21 155.648 106.532C155.077 105.722 154.433 104.94 153.713 104.253C151.503 102.671 148.983 102.376 146.597 103.682C145.553 104.454 144.645 105.434 143.854 106.471C141.046 110.046 138.432 113.844 135.143 117.006C130.224 121.653 123.527 124.145 116.786 124.023C116.184 124.012 115.581 123.979 114.975 123.926C110.059 123.649 105.129 122.795 100.652 120.666C97.3151 119.168 94.3669 117.623 91.7514 115.651C89.0274 117.898 85.8998 119.855 84.0999 122.973C82.1451 126.48 81.4163 130.494 80.5927 134.392C81.8642 134.728 83.1173 135.143 84.3354 135.62C85.901 136.234 87.5319 136.967 88.6417 138.28C88.683 138.327 88.7199 138.378 88.757 138.425C88.7693 138.443 88.7776 138.455 88.7899 138.472C88.8393 138.536 88.8845 138.6 88.9255 138.664C88.9542 138.707 88.9829 138.75 89.0074 138.792C89.0442 138.852 89.0769 138.907 89.1095 138.967C89.1095 138.967 89.1136 138.975 89.1178 138.975C89.122 138.975 89.1178 138.975 89.1177 138.979C89.2081 139.107 89.2897 139.256 89.3625 139.422C89.3788 139.451 89.3908 139.485 89.4028 139.519C89.5197 139.807 89.6145 140.15 89.6703 140.547C90.0459 143.235 89.4846 145.964 89.6237 148.668C89.656 154.38 91.5781 158.7 96.5344 161.776C99.0861 163.103 101.797 164.034 103.025 166.897C104.259 169.694 104.141 172.848 104.127 175.84C104.002 181.388 103.435 186.916 103.163 192.458C103.145 192.941 103.098 193.429 103.148 193.914C103.875 194.95 104.837 195.822 105.904 196.507C110.535 198.934 115.748 200.218 120.964 200.45C125.346 200.654 129.499 200.673 133.796 200.009C136.222 199.511 138.64 198.934 141.003 198.178C142.332 197.698 143.784 197.153 143.941 195.548C144.289 193.615 144.284 191.641 144.363 189.681C144.53 185.257 144.71 180.833 145.071 176.421C145.645 170.995 145.226 168.142 150.913 165.715C155.887 163.565 161.041 160.85 163.971 156.112C165.249 154.073 166.181 151.848 167.028 149.604C168.345 146.144 169.516 142.61 170.318 138.993C171.211 134.742 171.684 130.42 172.094 126.106C172.292 124.978 172.151 123.973 172.245 123.003L172.245 122.99ZM183.319 136.012C181.385 133.464 179.37 130.968 177.453 128.403C176.902 127.648 176.349 127.015 175.829 126.382C175.781 126.903 175.725 127.424 175.673 127.949C175.255 132.259 174.69 136.575 173.704 140.794C173.677 140.895 173.65 140.999 173.618 141.1C176.605 138.993 179.921 137.346 183.319 136.012ZM208.898 132.245C208.661 129.804 207.726 127.472 207.265 125.064C206.779 122.875 206.446 120.655 206.184 118.428C203.802 119.932 201.178 121.154 198.276 122.325C193.723 124.285 188.764 124.954 183.841 125.047C183.237 125.077 182.634 125.087 182.027 125.076C181.302 125.062 180.578 125.019 179.862 124.947C179.949 125.045 180.031 125.148 180.114 125.246C182.768 128.528 185.452 131.785 187.939 135.198C188.812 136.368 189.607 137.603 190.543 138.727C191.427 139.038 192.392 138.606 193.264 138.412C198.589 136.673 203.867 134.726 208.898 132.249L208.898 132.245ZM210.801 67.98C210.699 67.7677 210.598 67.5554 210.492 67.3472C208.966 64.6252 207.49 61.719 205.031 59.7077C201.308 56.73 196.335 56.3465 191.75 55.9913C186.231 55.4924 180.673 55.4894 175.174 56.1903C172.209 56.4083 169.226 56.9795 166.54 58.3012C164.604 59.4728 163.121 61.221 161.643 62.9019C159.407 65.6208 156.477 68.5455 156.827 72.3439C156.873 73.3042 157.428 74.0553 157.903 74.8007C158.853 73.6022 159.787 72.3908 160.791 71.2397C165.647 66.1458 171.973 62.2789 178.8 60.475C190.727 57.6808 202.82 59.9777 210.797 67.9799L210.801 67.98ZM215.291 92.1447C215.58 88.392 214.961 84.7317 213.56 81.2209C211.377 74.8379 206.906 68.9971 200.742 66.0368C191.869 61.818 180.573 62.2084 172.083 67.1921C168.718 69.2165 165.458 71.5291 163.042 74.6654C162.886 74.8603 162.727 75.0593 162.571 75.2584C162.446 75.416 162.325 75.5778 162.195 75.7353C162.087 75.8764 161.975 76.0174 161.863 76.1584C161.625 76.4611 161.387 76.7639 161.146 77.0624C161.068 77.1619 160.986 77.2614 160.904 77.3608C160.779 77.5142 160.658 77.6635 160.529 77.8168C160.442 77.9203 160.356 78.0239 160.27 78.1275C160.183 78.2311 160.093 78.3347 160.007 78.4382C159.92 78.5418 159.83 78.6454 159.739 78.7447C159.658 78.8399 159.571 78.9351 159.485 79.0261C159.412 79.1089 159.339 79.1875 159.262 79.2702C159.145 79.3943 159.033 79.5142 158.917 79.6383C158.827 79.7334 158.732 79.8326 158.634 79.9276C158.505 80.0598 158.367 80.1877 158.234 80.3199C158.153 80.3941 158.071 80.4726 157.994 80.5469C157.955 80.584 157.912 80.6211 157.874 80.6582C157.775 80.749 157.672 80.8354 157.569 80.9261C157.445 81.0332 157.325 81.1361 157.201 81.2348C156.888 81.4899 156.572 81.7281 156.238 81.9533C156.153 82.0148 156.068 82.0721 155.978 82.1294C155.888 82.1908 155.794 82.248 155.701 82.3051C155.679 82.3216 155.658 82.3338 155.637 82.346C155.538 82.4031 155.44 82.4644 155.342 82.5215C155.108 82.656 154.865 82.7819 154.618 82.9035C154.533 82.944 154.444 82.9886 154.355 83.0248C154.346 83.0289 154.342 83.033 154.333 83.0329C154.325 83.0411 154.312 83.0451 154.303 83.0491C154.052 83.1791 153.784 83.3003 153.542 83.4094C153.495 83.4296 153.448 83.4498 153.402 83.4699C153.1 83.5989 152.862 83.6955 152.773 83.7317C151.783 84.0961 150.703 84.1348 149.664 84.0228C146.796 83.5567 144.136 82.1897 142.211 80.0284C142.203 80.0114 142.191 79.9943 142.183 79.9773C142.133 79.9301 142.083 79.8829 142.034 79.8315C142.017 79.8101 141.996 79.7929 141.98 79.7715C141.963 79.7544 141.951 79.7373 141.934 79.7202C141.802 79.5788 141.657 79.4499 141.52 79.3084C141.52 79.3126 141.529 79.317 141.533 79.3213C141.421 79.2056 141.305 79.0898 141.194 78.9741C141.103 78.8798 141.016 78.7814 140.933 78.683C140.863 78.5933 140.789 78.5078 140.715 78.4222C140.603 78.2939 140.488 78.1697 140.368 78.0454C139.416 76.8366 138.529 75.5659 137.632 74.3539C135.335 71.1335 132.164 68.6964 128.877 66.5475C120.58 61.2495 109.307 60.4367 100.282 64.3204C94.0065 67.0437 89.325 72.7174 86.9047 79.0141C85.3768 82.4659 84.6172 86.1004 84.766 89.8655C84.6422 95.351 85.5877 100.936 88.2335 105.796C89.6762 108.243 91.442 110.553 93.6215 112.391C96.947 114.957 100.796 116.83 104.702 118.343C107.664 119.374 110.775 119.841 113.897 120.03C118.879 120.569 123.997 119.524 128.219 116.784C132.409 114.152 135.29 110.048 138.28 106.207C139.776 104.24 141.24 102.197 143.2 100.651C143.807 100.2 144.562 99.7636 145.391 99.3835C145.434 99.3675 145.476 99.3557 145.518 99.3396C145.739 99.2596 145.96 99.1838 146.18 99.1205C146.18 99.1205 146.189 99.1207 146.193 99.1208C146.223 99.1129 146.252 99.1051 146.282 99.1014C146.312 99.0935 146.341 99.0857 146.371 99.082C146.705 99.0083 147.036 98.9135 147.371 98.8356C147.519 98.8005 147.667 98.7738 147.819 98.7514C147.84 98.7476 147.866 98.7439 147.887 98.7401C147.917 98.7322 147.946 98.7285 147.976 98.7249C148.039 98.7134 148.107 98.7063 148.17 98.6991L148.179 98.6992L148.183 98.6993C148.183 98.6993 148.221 98.6958 148.242 98.692C148.699 98.6206 149.163 98.583 149.627 98.5664C149.674 98.5673 149.72 98.564 149.767 98.5606C150.56 98.5502 151.347 98.6197 152.12 98.773C152.229 98.7961 152.334 98.8149 152.443 98.8422C152.552 98.8695 152.657 98.8925 152.762 98.9239C152.771 98.9241 152.775 98.9241 152.779 98.9242C152.783 98.9243 152.788 98.9244 152.796 98.9245C152.826 98.9293 152.859 98.9341 152.888 98.9431C152.926 98.9522 152.964 98.9614 152.998 98.9662C153.069 98.9844 153.14 99.0067 153.207 99.0248C153.228 99.0294 153.245 99.034 153.262 99.0427C153.405 99.0832 153.539 99.132 153.672 99.1892C153.71 99.2068 153.748 99.2201 153.785 99.2376L153.811 99.2465L153.819 99.2467C153.819 99.2467 153.84 99.2597 153.852 99.2642C153.986 99.3172 154.12 99.3702 154.254 99.4316C154.308 99.4537 154.367 99.48 154.421 99.5063C154.526 99.5545 154.626 99.6027 154.731 99.6551C154.864 99.7124 155.003 99.7697 155.136 99.8269C155.166 99.84 155.195 99.8532 155.22 99.8663C155.687 100.144 156.108 100.434 156.477 100.732C158.378 102.349 159.76 104.446 161.186 106.467C164.03 110.418 166.751 114.626 170.844 117.413C174.956 120.31 180.035 121.545 185.035 121.193C188.161 121.125 191.288 120.776 194.286 119.851C198.246 118.486 202.162 116.758 205.582 114.318C207.828 112.563 209.679 110.321 211.213 107.93C214.038 103.173 215.192 97.6264 215.274 92.1401L215.291 92.1447ZM223.935 121.462C225.897 122.034 227.627 123.817 227.35 125.97C226.582 129.638 222.678 131.362 219.716 133.062C210.368 137.945 200.342 141.259 190.586 145.201C185.997 146.849 176.444 152.128 172.012 150.316C171.61 150.157 171.264 149.969 170.972 149.757C169.655 153.445 168.024 157.008 165.767 160.206C162.146 165.104 156.531 167.928 151.084 170.343C150.529 170.695 149.828 170.959 149.43 171.495C149.165 172.836 149.025 174.206 148.895 175.567C148.386 181.344 148.265 187.145 147.988 192.935C147.721 198.839 145.869 201.59 140.005 203.067C133.621 205.051 126.91 205.414 120.272 204.999C115.641 204.828 111.094 203.754 106.813 202.012C105.473 201.478 104.144 200.872 102.979 200.004C98.5318 196.546 99.2364 194.72 99.5636 189.63C99.8721 183.516 100.742 177.359 100.157 171.237C99.8671 168.012 97.4112 167.428 94.9724 166.153C93.6248 165.379 92.4066 164.451 91.2883 163.37C88.9103 161.099 87.1769 158.184 86.5079 154.952C85.9812 152.678 85.8614 150.294 85.8922 147.971C85.8787 146.889 85.9832 145.814 86.0793 144.734C84.229 145.36 82.1914 145.179 80.2766 144.971C75.0373 144.401 69.88 143.274 64.7541 142.054C61.9016 141.475 58.6494 140.854 55.9291 140.201C50.7069 139.165 45.4847 138.129 40.4449 136.36C37.7951 135.544 35.0143 134.97 32.6213 133.503C29.995 132.103 29.0755 128.74 31.8209 126.927C33.7872 125.731 36.232 126.012 38.4213 126.196C40.6099 126.418 42.7557 126.9 44.8118 127.671C45.6836 125.701 46.5847 123.744 47.5026 121.792C50.3199 115.46 53.7637 109.452 57.078 103.378C59.5758 98.5725 62.5826 94.0585 65.2014 89.3225C69.2822 82.1731 73.3131 74.989 77.7275 68.0435C81.4417 62.2297 84.617 56.149 91.4465 53.5456C96.2974 51.4396 101.447 50.0294 106.62 48.9731C110.486 48.3259 114.397 47.1197 118.346 47.6902C123.658 48.4167 128.561 50.9578 132.457 54.5953C137.296 58.7764 142.163 63.0044 146.348 67.8551C148.603 70.3929 149.447 73.9522 147.699 77.0043C147.407 77.4996 146.977 78.1775 146.46 78.7949C146.559 78.8809 146.663 78.9712 146.767 79.0573C148.076 80.1003 149.813 80.9829 151.48 80.4712C152.066 80.2549 152.619 79.9875 153.144 79.6817C153.152 79.6777 153.161 79.6736 153.165 79.6653C153.707 79.3303 154.216 78.9527 154.667 78.4982C154.86 78.3082 155.049 78.1182 155.23 77.9238C154.549 77.1451 153.997 76.2257 153.64 75.2637C152.612 72.0587 153.097 68.4191 154.788 65.5217C156.153 63.0685 158.003 60.9021 159.855 58.8073C161.725 56.7087 163.747 54.5581 166.415 53.5055C169.173 52.3535 172.131 51.8028 175.1 51.5849C180.683 50.8898 186.317 50.8816 191.921 51.3611C194.573 51.6169 197.256 51.7471 199.855 52.3597C204.598 53.5511 208.766 56.1668 211.164 60.5211C213.21 63.6357 214.91 66.9922 216.113 70.5203C216.798 72.9151 217.41 75.338 217.955 77.7681C218.185 78.9844 218.361 80.2081 218.519 81.4315C218.922 82.6679 219.269 83.9201 219.524 85.1916C219.923 87.5432 219.915 89.9503 219.783 92.3213C219.624 98.7699 217.991 105.334 214.273 110.681C212.873 112.704 211.362 114.38 209.716 115.814C209.817 116.914 209.936 118.01 210.084 119.099C210.293 120.588 210.56 122.062 210.874 123.524C212.034 123.087 213.302 122.896 214.478 122.518C215.575 122.223 216.673 121.945 217.778 121.696C219.777 121.254 221.917 120.878 223.926 121.466L223.935 121.462Z" fill="#1A1A1A"/>
<path d="M207.272 125.065C207.733 127.472 208.668 129.804 208.904 132.245C203.874 134.723 198.596 136.669 193.271 138.408C192.399 138.603 191.433 139.035 190.549 138.724C189.613 137.603 188.822 136.364 187.946 135.195C185.459 131.781 182.775 128.524 180.12 125.242C180.038 125.144 179.955 125.042 179.869 124.943C180.588 125.015 181.313 125.059 182.034 125.072C182.637 125.083 183.24 125.074 183.848 125.043C188.77 124.95 193.729 124.281 198.282 122.321C201.184 121.146 203.809 119.929 206.19 118.425C206.448 120.651 206.782 122.871 207.272 125.06L207.272 125.065Z" fill="#FFFFEB"/>
<path d="M196.505 257.521C195.7 257.258 195.219 256.369 195.039 255.604C194.743 254.311 194.43 253.026 194.091 251.744C192.868 247.025 190.77 242.613 188.476 238.332C186.402 234.241 184.273 230.178 181.534 226.486C180.514 225.318 181.09 222.703 182.961 223.243C183.91 223.664 184.526 224.564 185.203 225.313C186.156 226.45 187.006 227.662 187.788 228.922C190.628 233.789 193.415 238.732 195.595 243.932C196.933 247.227 197.852 250.657 198.656 254.115C199.022 255.477 198.317 258.039 196.509 257.526L196.505 257.521Z" fill="#1A1A1A"/>
<path d="M116.268 34.0887C115.319 33.8479 114.677 33.0236 113.881 32.5037C112.426 31.4201 110.896 30.4404 109.28 29.6148C107.374 28.7037 105.349 28.064 103.269 27.701C100.085 27.229 96.8241 26.8607 93.6189 27.331C92.5158 27.4619 91.3073 28.0453 90.2466 27.4909C89.4154 27.063 89.0271 25.9531 89.2753 25.0866C89.5012 24.2828 90.2739 24.0027 90.9787 23.7465C95.6372 22.0031 102.719 22.8426 107.392 24.382C110.488 25.4247 113.294 27.1522 115.897 29.1074C117.259 30.025 118.879 31.5662 118.145 33.3579C117.79 34.1003 116.986 34.2368 116.272 34.0887L116.268 34.0887Z" fill="#1A1A1A"/>
<path d="M108.355 37.6955C105.96 36.0936 103.159 35.2668 100.338 34.789C99.4972 34.6596 98.6385 34.5762 97.7927 34.7034C95.7119 35.0306 94.52 31.7973 96.5608 30.9054C98.0786 30.2479 99.8109 30.516 101.396 30.7729C104.419 31.2419 107.352 32.2689 109.896 33.9873C110.853 34.6702 111.379 36.0688 110.857 37.1616C110.395 38.1672 109.086 38.3068 108.272 37.6393L108.355 37.6955Z" fill="#1A1A1A"/>
<path d="M159.047 33.6051C158.537 33.3389 158.393 32.6881 158.45 32.1673C158.773 30.4395 160.709 29.7476 161.954 28.7609C164.44 27.0568 167.144 25.6513 170.025 24.7499C171.467 24.2677 172.938 23.8533 174.425 23.515C175.082 23.3337 175.813 23.2422 176.426 23.6114C177.394 24.1429 177.348 25.5014 176.722 26.2893C175.613 27.8635 173.437 27.646 171.793 28.2802C170.461 28.6761 169.15 29.1061 167.867 29.646C165.992 30.4526 164.272 31.5482 162.54 32.6184C161.496 33.1796 160.266 34.276 159.043 33.605L159.047 33.6051Z" fill="#1A1A1A"/>
<path d="M169.652 34.438C168.868 34.1751 168.71 33.141 169.014 32.4776C169.379 31.6512 170.134 31.1729 170.897 30.7537C174.741 28.612 178.838 26.8791 183.077 25.6917C183.857 25.4875 184.794 25.7028 185.18 26.4676C185.716 27.5339 184.939 28.7482 184.055 29.3419C183.521 29.698 182.844 29.8116 182.221 29.9767C179.753 30.7133 177.345 31.6572 174.977 32.665C173.74 33.1847 172.54 33.7682 171.303 34.2922C170.764 34.5135 170.209 34.6294 169.652 34.4422L169.652 34.438Z" fill="#1A1A1A"/>
</svg>
