<svg xmlns="http://www.w3.org/2000/svg" xmlns:xlink="http://www.w3.org/1999/xlink" viewBox="0 0 26 26" version="1.1" width="520" height="520" style="fill: rgb(255, 255, 255);">
<g id="surface1">
<path style=" " d="M 13 0.1875 C 5.925781 0.1875 0.1875 5.925781 0.1875 13 C 0.1875 20.074219 5.925781 25.8125 13 25.8125 C 20.074219 25.8125 25.8125 20.074219 25.8125 13 C 25.8125 5.925781 20.074219 0.1875 13 0.1875 Z M 13 2.1875 C 18.960938 2.1875 23.8125 7.039063 23.8125 13 C 23.8125 13.46875 23.777344 13.921875 23.71875 14.375 C 23.519531 14.324219 22.894531 14.164063 22.21875 14.15625 C 21.613281 14.148438 20.886719 14.25 20.5 14.3125 C 20.601563 13.898438 20.6875 13.457031 20.6875 13 C 20.6875 11.859375 20.257813 10.75 19.5 9.8125 C 19.78125 8.929688 20.171875 6.921875 19.40625 6.15625 C 17.53125 6.15625 16.476563 7.347656 16.28125 7.59375 C 15.421875 7.28125 14.492188 7.125 13.5 7.125 C 12.53125 7.125 11.59375 7.265625 10.75 7.5625 C 10.488281 7.246094 9.453125 6.15625 7.65625 6.15625 C 6.90625 6.90625 7.28125 8.839844 7.5625 9.75 C 6.769531 10.703125 6.3125 11.832031 6.3125 13 C 6.3125 13.429688 6.347656 13.859375 6.4375 14.25 C 6.109375 14.222656 4.777344 14.125 4.25 14.125 C 3.722656 14.125 2.855469 14.238281 2.28125 14.375 C 2.222656 13.921875 2.1875 13.46875 2.1875 13 C 2.1875 7.039063 7.039063 2.1875 13 2.1875 Z M 4.25 14.375 C 4.769531 14.375 6.371094 14.519531 6.53125 14.53125 C 6.558594 14.625 6.589844 14.71875 6.625 14.8125 C 6.097656 14.769531 4.96875 14.695313 4.25 14.78125 C 3.371094 14.886719 2.722656 15.234375 2.46875 15.375 C 2.414063 15.128906 2.351563 14.875 2.3125 14.625 C 2.863281 14.496094 3.761719 14.375 4.25 14.375 Z M 22.21875 14.40625 C 22.875 14.414063 23.519531 14.554688 23.6875 14.59375 C 23.671875 14.707031 23.644531 14.824219 23.625 14.9375 C 23.539063 14.914063 22.757813 14.675781 21.9375 14.65625 C 21.535156 14.644531 20.898438 14.710938 20.40625 14.75 C 20.429688 14.6875 20.449219 14.625 20.46875 14.5625 C 20.808594 14.515625 21.617188 14.398438 22.21875 14.40625 Z M 21.90625 14.90625 C 22.703125 14.925781 23.546875 15.175781 23.59375 15.1875 C 22.855469 18.777344 20.335938 21.699219 17 23.03125 L 17 21.3125 C 17 20.230469 16.355469 18.824219 15.4375 18.125 C 18.023438 17.753906 19.632813 16.609375 20.3125 15 C 20.777344 14.960938 21.488281 14.894531 21.90625 14.90625 Z M 5.0625 15 C 5.777344 15.003906 6.417969 15.039063 6.71875 15.0625 C 7.414063 16.636719 9.011719 17.757813 11.5625 18.125 C 11.273438 18.347656 11.003906 18.636719 10.78125 18.96875 C 10.773438 18.980469 10.757813 18.988281 10.75 19 C 10.25 19.601563 9.3125 19.5625 8.4375 19.5625 C 7.542969 19.5625 7.007813 18.847656 6.53125 18.21875 C 6.050781 17.59375 5.425781 17.539063 5.09375 17.5 C 4.761719 17.464844 4.671875 17.632813 4.84375 17.75 C 5.816406 18.433594 6.199219 19.269531 6.59375 20 C 6.949219 20.65625 7.679688 21 8.5 21 L 10.03125 21 C 10.019531 21.101563 10 21.214844 10 21.3125 L 10 23.375 C 6.316406 22.3125 3.464844 19.359375 2.53125 15.625 C 2.726563 15.515625 3.414063 15.132813 4.28125 15.03125 C 4.488281 15.007813 4.765625 15 5.0625 15 Z M 13.5 21 C 13.777344 21 14 21.222656 14 21.5 L 14 23.75 C 13.667969 23.78125 13.339844 23.8125 13 23.8125 L 13 21.5 C 13 21.222656 13.222656 21 13.5 21 Z M 11.5 21.59375 C 11.777344 21.59375 12 21.816406 12 22.09375 L 12 23.75 C 11.667969 23.71875 11.324219 23.683594 11 23.625 L 11 22.09375 C 11 21.816406 11.222656 21.59375 11.5 21.59375 Z M 15.5 21.59375 C 15.777344 21.59375 16 21.816406 16 22.09375 L 16 23.375 C 15.671875 23.46875 15.339844 23.5625 15 23.625 L 15 22.09375 C 15 21.816406 15.222656 21.59375 15.5 21.59375 Z "/>
</g>
</svg>