<svg xmlns="http://www.w3.org/2000/svg" xmlns:xlink="http://www.w3.org/1999/xlink" viewBox="0 0 50 50" version="1.1" width="500" height="500" style="fill: rgb(255, 255, 255);">
<g id="surface1">
<path style=" " d="M 18 41.578125 C 18 42.46875 17.523438 43 16.847656 43 C 16.609375 43 16.34375 42.933594 16.0625 42.792969 L 5.164063 37.273438 C 4.523438 36.949219 4 36.089844 4 35.367188 L 4 8.3125 C 4 7.597656 4.378906 7.175781 4.921875 7.175781 C 5.113281 7.175781 5.328125 7.226563 5.550781 7.339844 L 5.933594 7.535156 C 5.933594 7.535156 5.9375 7.535156 5.9375 7.535156 L 17.949219 13.617188 C 17.96875 13.628906 17.984375 13.648438 18 13.664063 Z M 30.585938 8.882813 L 31.320313 7.675781 C 31.582031 7.246094 32.0625 7 32.550781 7 C 32.664063 7 32.78125 7.015625 32.894531 7.046875 C 32.980469 7.066406 33.070313 7.097656 33.164063 7.144531 L 45.832031 13.558594 C 45.835938 13.558594 45.835938 13.5625 45.835938 13.5625 L 45.847656 13.566406 C 45.855469 13.570313 45.855469 13.582031 45.863281 13.585938 C 45.925781 13.636719 45.953125 13.722656 45.910156 13.792969 L 33.292969 34.558594 L 32.003906 36.675781 L 23.644531 20.304688 Z M 20 30.605469 L 20 17.5625 L 28.980469 35.15625 L 20.902344 31.066406 Z M 46 41.578125 C 46 42.414063 45.503906 42.890625 44.773438 42.890625 C 44.445313 42.890625 44.070313 42.796875 43.675781 42.597656 L 41.867188 41.679688 L 33.789063 37.589844 L 46 17.496094 Z "/>
</g>
</svg>