<?xml version="1.0" encoding="iso-8859-1"?>
<!-- Generator: Adobe Illustrator 16.0.0, SVG Export Plug-In . SVG Version: 6.00 Build 0)  -->
<!DOCTYPE svg PUBLIC "-//W3C//DTD SVG 1.1//EN" "http://www.w3.org/Graphics/SVG/1.1/DTD/svg11.dtd">
<svg xmlns="http://www.w3.org/2000/svg" xmlns:xlink="http://www.w3.org/1999/xlink" version="1.1" id="Capa_1" x="0px" y="0px" width="512px" height="512px" viewBox="0 0 430.116 430.117" style="enable-background:new 0 0 430.116 430.117;" xml:space="preserve">
<g>
	<path id="Quora" d="M315.493,358.642c54.446-34.149,90.729-95.204,90.729-164.865C406.222,86.759,320.627,0,215.049,0   C109.47,0,23.895,86.759,23.895,193.777c0,107.025,85.575,193.777,191.154,193.777c15.532,0,30.616-1.923,45.065-5.47   c18.146,33.015,45.793,56.378,104.477,45.205v-32.847C364.591,394.443,326.956,384.983,315.493,358.642z M314.159,219.4   c0,32.352-10.296,61.717-27.022,83.409c-21.012-22.369-53.942-40.753-95.729-38.409v3.93v34.153c0,0,28.347,1.12,47.751,34.471   c-7.271,2.138-14.842,3.295-22.643,3.295c-53.933,0-97.633-54.101-97.633-120.858c0-8.562,0-41.355,0-49.924   c0-66.751,43.7-120.858,97.633-120.858c53.931,0,97.643,54.107,97.643,120.858C314.159,178.04,314.159,210.833,314.159,219.4z" fill="#FFFFFF"/>
</g>
<g>
</g>
<g>
</g>
<g>
</g>
<g>
</g>
<g>
</g>
<g>
</g>
<g>
</g>
<g>
</g>
<g>
</g>
<g>
</g>
<g>
</g>
<g>
</g>
<g>
</g>
<g>
</g>
<g>
</g>
</svg>
