<svg xmlns="http://www.w3.org/2000/svg" xmlns:xlink="http://www.w3.org/1999/xlink" viewBox="0 0 50 50" version="1.1" width="500" height="500" style="fill: rgb(255, 255, 255);">
<g id="surface1">
<path style=" fill-rule:evenodd;" d="M 40.925781 1.890625 L 37.859375 2.417969 L 41.1875 20.625 L 44.03125 20.253906 Z M 29.96875 6.351563 L 27.101563 8.078125 L 37.300781 23.035156 L 39.820313 21.480469 Z M 20.796875 15.03125 L 19.113281 17.703125 L 34.5 27 L 35.902344 24.578125 Z M 16.375 24.402344 L 15.628906 27.402344 L 33.359375 31.894531 L 33.640625 29.203125 Z M 9 29 L 9 47.984375 L 38.902344 48 L 38.902344 47.984375 C 38.933594 47.984375 39 29 39 29 L 36 29 L 36 45 L 12 45 L 12 29 Z M 15.152344 32.355469 L 14.902344 35.339844 L 33 37 L 33.203125 34.5 Z M 14.902344 39 L 15 42 L 33 41.929688 L 33 39 Z "/>
</g>
</svg>